<mxfile host="app.diagrams.net" agent="Mozilla/5.0 (Windows NT 10.0; Win64; x64; rv:139.0) Gecko/20100101 Firefox/139.0" version="28.2.3">
  <diagram name="Page-1" id="j_UNtgZywGewUzDashUs">
    <mxGraphModel dx="1781" dy="769" grid="1" gridSize="10" guides="1" tooltips="1" connect="1" arrows="1" fold="1" page="1" pageScale="1" pageWidth="850" pageHeight="1100" math="0" shadow="0">
      <root>
        <mxCell id="0" />
        <mxCell id="1" parent="0" />
        <mxCell id="Qkja0bBRAM592csyJ8ed-3" value="" style="rounded=0;whiteSpace=wrap;html=1;dashed=1;fillColor=none;strokeWidth=1;perimeterSpacing=0;dashPattern=8 8;" parent="1" vertex="1">
          <mxGeometry x="5" y="360" width="840" height="250" as="geometry" />
        </mxCell>
        <mxCell id="pCgzKXGaRjzKQiXqkFun-4" style="edgeStyle=orthogonalEdgeStyle;rounded=0;orthogonalLoop=1;jettySize=auto;html=1;exitX=0.5;exitY=0;exitDx=0;exitDy=0;endArrow=none;endFill=0;" parent="1" source="pCgzKXGaRjzKQiXqkFun-1" edge="1">
          <mxGeometry relative="1" as="geometry">
            <mxPoint x="220" y="90" as="targetPoint" />
          </mxGeometry>
        </mxCell>
        <mxCell id="pCgzKXGaRjzKQiXqkFun-9" style="edgeStyle=orthogonalEdgeStyle;rounded=0;orthogonalLoop=1;jettySize=auto;html=1;exitX=0;exitY=0;exitDx=0;exitDy=0;entryX=1;entryY=1;entryDx=0;entryDy=0;endArrow=none;endFill=0;" parent="1" source="pCgzKXGaRjzKQiXqkFun-1" target="pCgzKXGaRjzKQiXqkFun-7" edge="1">
          <mxGeometry relative="1" as="geometry" />
        </mxCell>
        <mxCell id="Qkja0bBRAM592csyJ8ed-7" value="" style="edgeStyle=orthogonalEdgeStyle;rounded=0;orthogonalLoop=1;jettySize=auto;html=1;endArrow=none;endFill=0;" parent="1" source="pCgzKXGaRjzKQiXqkFun-1" target="pCgzKXGaRjzKQiXqkFun-10" edge="1">
          <mxGeometry relative="1" as="geometry" />
        </mxCell>
        <mxCell id="Qkja0bBRAM592csyJ8ed-8" style="edgeStyle=orthogonalEdgeStyle;rounded=0;orthogonalLoop=1;jettySize=auto;html=1;endArrow=none;endFill=0;" parent="1" edge="1">
          <mxGeometry relative="1" as="geometry">
            <mxPoint x="280" y="169.9999999999999" as="sourcePoint" />
            <mxPoint x="452.5" y="240.0000000000001" as="targetPoint" />
            <Array as="points">
              <mxPoint x="350" y="170" />
              <mxPoint x="350" y="170" />
            </Array>
          </mxGeometry>
        </mxCell>
        <mxCell id="CSdRYIGSl0JJNWNKMSJN-75" style="edgeStyle=orthogonalEdgeStyle;rounded=0;orthogonalLoop=1;jettySize=auto;html=1;exitX=1;exitY=0.5;exitDx=0;exitDy=0;entryX=0;entryY=0.5;entryDx=0;entryDy=0;" edge="1" parent="1" source="pCgzKXGaRjzKQiXqkFun-1" target="CSdRYIGSl0JJNWNKMSJN-72">
          <mxGeometry relative="1" as="geometry" />
        </mxCell>
        <mxCell id="pCgzKXGaRjzKQiXqkFun-1" value="Professors" style="rounded=1;whiteSpace=wrap;html=1;" parent="1" vertex="1">
          <mxGeometry x="160" y="120" width="120" height="60" as="geometry" />
        </mxCell>
        <mxCell id="pCgzKXGaRjzKQiXqkFun-2" value="&lt;u&gt;&lt;font style=&quot;font-size: 14px;&quot;&gt;SSN&lt;/font&gt;&lt;/u&gt;" style="ellipse;whiteSpace=wrap;html=1;" parent="1" vertex="1">
          <mxGeometry x="185" y="40" width="70" height="50" as="geometry" />
        </mxCell>
        <mxCell id="pCgzKXGaRjzKQiXqkFun-5" value="&lt;font style=&quot;font-size: 14px;&quot;&gt;name&lt;/font&gt;" style="ellipse;whiteSpace=wrap;html=1;" parent="1" vertex="1">
          <mxGeometry x="270" y="50" width="70" height="50" as="geometry" />
        </mxCell>
        <mxCell id="pCgzKXGaRjzKQiXqkFun-6" style="edgeStyle=orthogonalEdgeStyle;rounded=0;orthogonalLoop=1;jettySize=auto;html=1;exitX=1;exitY=0;exitDx=0;exitDy=0;entryX=0.321;entryY=1;entryDx=0;entryDy=0;entryPerimeter=0;endArrow=none;endFill=0;" parent="1" source="pCgzKXGaRjzKQiXqkFun-1" target="pCgzKXGaRjzKQiXqkFun-5" edge="1">
          <mxGeometry relative="1" as="geometry">
            <Array as="points">
              <mxPoint x="293" y="120" />
            </Array>
          </mxGeometry>
        </mxCell>
        <mxCell id="pCgzKXGaRjzKQiXqkFun-7" value="&lt;font style=&quot;font-size: 14px;&quot;&gt;age&lt;/font&gt;" style="ellipse;whiteSpace=wrap;html=1;" parent="1" vertex="1">
          <mxGeometry x="90" y="50" width="70" height="50" as="geometry" />
        </mxCell>
        <mxCell id="pCgzKXGaRjzKQiXqkFun-10" value="research specialty" style="ellipse;whiteSpace=wrap;html=1;" parent="1" vertex="1">
          <mxGeometry x="47.5" y="125" width="70" height="50" as="geometry" />
        </mxCell>
        <mxCell id="pCgzKXGaRjzKQiXqkFun-66" value="" style="edgeStyle=orthogonalEdgeStyle;rounded=0;orthogonalLoop=1;jettySize=auto;html=1;endArrow=none;endFill=0;" parent="1" source="pCgzKXGaRjzKQiXqkFun-16" edge="1">
          <mxGeometry relative="1" as="geometry">
            <mxPoint x="220" y="550" as="targetPoint" />
          </mxGeometry>
        </mxCell>
        <mxCell id="pCgzKXGaRjzKQiXqkFun-68" style="edgeStyle=orthogonalEdgeStyle;rounded=0;orthogonalLoop=1;jettySize=auto;html=1;exitX=0;exitY=0.5;exitDx=0;exitDy=0;entryX=1;entryY=0.5;entryDx=0;entryDy=0;endArrow=none;endFill=0;" parent="1" source="pCgzKXGaRjzKQiXqkFun-16" target="pCgzKXGaRjzKQiXqkFun-18" edge="1">
          <mxGeometry relative="1" as="geometry" />
        </mxCell>
        <mxCell id="pCgzKXGaRjzKQiXqkFun-74" value="" style="edgeStyle=orthogonalEdgeStyle;rounded=0;orthogonalLoop=1;jettySize=auto;html=1;strokeWidth=3;" parent="1" source="pCgzKXGaRjzKQiXqkFun-16" target="pCgzKXGaRjzKQiXqkFun-64" edge="1">
          <mxGeometry relative="1" as="geometry" />
        </mxCell>
        <mxCell id="pCgzKXGaRjzKQiXqkFun-81" style="edgeStyle=orthogonalEdgeStyle;rounded=0;orthogonalLoop=1;jettySize=auto;html=1;exitX=0.75;exitY=0;exitDx=0;exitDy=0;" parent="1" source="pCgzKXGaRjzKQiXqkFun-16" target="pCgzKXGaRjzKQiXqkFun-80" edge="1">
          <mxGeometry relative="1" as="geometry" />
        </mxCell>
        <mxCell id="Qkja0bBRAM592csyJ8ed-1" style="edgeStyle=orthogonalEdgeStyle;rounded=0;orthogonalLoop=1;jettySize=auto;html=1;exitX=0;exitY=0.75;exitDx=0;exitDy=0;endArrow=none;endFill=0;" parent="1" source="pCgzKXGaRjzKQiXqkFun-16" edge="1">
          <mxGeometry relative="1" as="geometry">
            <mxPoint x="109.99999999999989" y="495.28571428571445" as="targetPoint" />
          </mxGeometry>
        </mxCell>
        <mxCell id="Qkja0bBRAM592csyJ8ed-2" style="edgeStyle=orthogonalEdgeStyle;rounded=0;orthogonalLoop=1;jettySize=auto;html=1;exitX=1;exitY=0.5;exitDx=0;exitDy=0;entryX=0;entryY=0.5;entryDx=0;entryDy=0;endArrow=none;endFill=0;" parent="1" source="pCgzKXGaRjzKQiXqkFun-16" target="pCgzKXGaRjzKQiXqkFun-92" edge="1">
          <mxGeometry relative="1" as="geometry">
            <mxPoint x="420" y="479.57142857142867" as="targetPoint" />
            <Array as="points" />
          </mxGeometry>
        </mxCell>
        <mxCell id="pCgzKXGaRjzKQiXqkFun-16" value="Projects" style="rounded=1;whiteSpace=wrap;html=1;" parent="1" vertex="1">
          <mxGeometry x="160" y="450" width="120" height="60" as="geometry" />
        </mxCell>
        <mxCell id="pCgzKXGaRjzKQiXqkFun-17" value="sponsor name" style="ellipse;whiteSpace=wrap;html=1;" parent="1" vertex="1">
          <mxGeometry x="185" y="530" width="70" height="50" as="geometry" />
        </mxCell>
        <mxCell id="pCgzKXGaRjzKQiXqkFun-18" value="startDate" style="ellipse;whiteSpace=wrap;html=1;" parent="1" vertex="1">
          <mxGeometry x="31.25" y="430" width="70" height="50" as="geometry" />
        </mxCell>
        <mxCell id="pCgzKXGaRjzKQiXqkFun-20" value="&lt;div&gt;&lt;u&gt;&lt;font style=&quot;font-size: 14px;&quot;&gt;project&lt;/font&gt;&lt;/u&gt;&lt;/div&gt;&lt;div&gt;&lt;u&gt;&lt;font style=&quot;font-size: 14px;&quot;&gt;number&lt;/font&gt;&lt;/u&gt;&lt;/div&gt;" style="ellipse;whiteSpace=wrap;html=1;" parent="1" vertex="1">
          <mxGeometry x="47.5" y="480" width="67.5" height="50" as="geometry" />
        </mxCell>
        <mxCell id="pCgzKXGaRjzKQiXqkFun-21" value="endDate" style="ellipse;whiteSpace=wrap;html=1;" parent="1" vertex="1">
          <mxGeometry x="272.5" y="540" width="70" height="50" as="geometry" />
        </mxCell>
        <mxCell id="pCgzKXGaRjzKQiXqkFun-23" value="budget" style="ellipse;whiteSpace=wrap;html=1;" parent="1" vertex="1">
          <mxGeometry x="105" y="520" width="70" height="50" as="geometry" />
        </mxCell>
        <mxCell id="Qkja0bBRAM592csyJ8ed-4" style="edgeStyle=orthogonalEdgeStyle;rounded=0;orthogonalLoop=1;jettySize=auto;html=1;exitX=0;exitY=0.5;exitDx=0;exitDy=0;entryX=1;entryY=0.5;entryDx=0;entryDy=0;" parent="1" source="pCgzKXGaRjzKQiXqkFun-52" target="pCgzKXGaRjzKQiXqkFun-92" edge="1">
          <mxGeometry relative="1" as="geometry" />
        </mxCell>
        <mxCell id="CSdRYIGSl0JJNWNKMSJN-79" style="edgeStyle=orthogonalEdgeStyle;rounded=0;orthogonalLoop=1;jettySize=auto;html=1;exitX=0.5;exitY=0;exitDx=0;exitDy=0;entryX=0.5;entryY=1;entryDx=0;entryDy=0;endArrow=classic;endFill=1;strokeWidth=3;" edge="1" parent="1" source="pCgzKXGaRjzKQiXqkFun-52" target="CSdRYIGSl0JJNWNKMSJN-77">
          <mxGeometry relative="1" as="geometry" />
        </mxCell>
        <mxCell id="CSdRYIGSl0JJNWNKMSJN-83" style="edgeStyle=orthogonalEdgeStyle;rounded=0;orthogonalLoop=1;jettySize=auto;html=1;exitX=0;exitY=0.75;exitDx=0;exitDy=0;entryX=1;entryY=0;entryDx=0;entryDy=0;endArrow=none;endFill=0;" edge="1" parent="1" source="pCgzKXGaRjzKQiXqkFun-52" target="pCgzKXGaRjzKQiXqkFun-53">
          <mxGeometry relative="1" as="geometry" />
        </mxCell>
        <mxCell id="CSdRYIGSl0JJNWNKMSJN-87" style="edgeStyle=orthogonalEdgeStyle;rounded=0;orthogonalLoop=1;jettySize=auto;html=1;exitX=0.25;exitY=0;exitDx=0;exitDy=0;endArrow=none;endFill=0;" edge="1" parent="1" source="pCgzKXGaRjzKQiXqkFun-52" target="pCgzKXGaRjzKQiXqkFun-54">
          <mxGeometry relative="1" as="geometry" />
        </mxCell>
        <mxCell id="CSdRYIGSl0JJNWNKMSJN-88" style="edgeStyle=orthogonalEdgeStyle;rounded=0;orthogonalLoop=1;jettySize=auto;html=1;exitX=0;exitY=0.25;exitDx=0;exitDy=0;endArrow=none;endFill=0;" edge="1" parent="1" source="pCgzKXGaRjzKQiXqkFun-52" target="pCgzKXGaRjzKQiXqkFun-56">
          <mxGeometry relative="1" as="geometry" />
        </mxCell>
        <mxCell id="CSdRYIGSl0JJNWNKMSJN-89" style="edgeStyle=orthogonalEdgeStyle;rounded=0;orthogonalLoop=1;jettySize=auto;html=1;exitX=0.75;exitY=0;exitDx=0;exitDy=0;entryX=0.5;entryY=0;entryDx=0;entryDy=0;endArrow=none;endFill=0;" edge="1" parent="1" source="pCgzKXGaRjzKQiXqkFun-52" target="CSdRYIGSl0JJNWNKMSJN-81">
          <mxGeometry relative="1" as="geometry" />
        </mxCell>
        <mxCell id="pCgzKXGaRjzKQiXqkFun-52" value="Graduate Students" style="rounded=1;whiteSpace=wrap;html=1;" parent="1" vertex="1">
          <mxGeometry x="600" y="450" width="120" height="60" as="geometry" />
        </mxCell>
        <mxCell id="pCgzKXGaRjzKQiXqkFun-53" value="&lt;u&gt;&lt;font style=&quot;font-size: 14px;&quot;&gt;SSN&lt;/font&gt;&lt;/u&gt;" style="ellipse;whiteSpace=wrap;html=1;" parent="1" vertex="1">
          <mxGeometry x="520" y="500" width="70" height="50" as="geometry" />
        </mxCell>
        <mxCell id="pCgzKXGaRjzKQiXqkFun-54" value="&lt;font style=&quot;font-size: 14px;&quot;&gt;name&lt;/font&gt;" style="ellipse;whiteSpace=wrap;html=1;" parent="1" vertex="1">
          <mxGeometry x="570" y="380" width="70" height="50" as="geometry" />
        </mxCell>
        <mxCell id="pCgzKXGaRjzKQiXqkFun-56" value="&lt;font style=&quot;font-size: 14px;&quot;&gt;age&lt;/font&gt;" style="ellipse;whiteSpace=wrap;html=1;" parent="1" vertex="1">
          <mxGeometry x="500" y="410" width="70" height="50" as="geometry" />
        </mxCell>
        <mxCell id="pCgzKXGaRjzKQiXqkFun-57" value="&lt;div&gt;degree&lt;/div&gt;&lt;div&gt;program&lt;/div&gt;" style="ellipse;whiteSpace=wrap;html=1;" parent="1" vertex="1">
          <mxGeometry x="590" y="525" width="70" height="50" as="geometry" />
        </mxCell>
        <mxCell id="pCgzKXGaRjzKQiXqkFun-59" value="&lt;div&gt;&lt;font style=&quot;font-size: 16px;&quot;&gt;Each project is managed by one professor (d)&lt;/font&gt;&lt;/div&gt;&lt;div&gt;&lt;div&gt;&lt;font style=&quot;font-size: 16px;&quot;&gt;Professors can manage and/or work on multiple projects (f)&amp;nbsp;&lt;/font&gt;&lt;/div&gt;&lt;br&gt;&lt;/div&gt;" style="text;strokeColor=#d6b656;align=left;fillColor=#fff2cc;html=1;verticalAlign=middle;whiteSpace=wrap;rounded=0;" parent="1" vertex="1">
          <mxGeometry x="5" y="740" width="645" height="60" as="geometry" />
        </mxCell>
        <mxCell id="pCgzKXGaRjzKQiXqkFun-63" value="&lt;h1&gt;&lt;b&gt;Assumptions&lt;/b&gt;&lt;/h1&gt;" style="text;strokeColor=#6c8ebf;align=center;fillColor=#dae8fc;html=1;verticalAlign=middle;whiteSpace=wrap;rounded=0;" parent="1" vertex="1">
          <mxGeometry x="-5" y="650" width="180" height="30" as="geometry" />
        </mxCell>
        <mxCell id="pCgzKXGaRjzKQiXqkFun-72" value="" style="edgeStyle=orthogonalEdgeStyle;rounded=0;orthogonalLoop=1;jettySize=auto;html=1;endArrow=none;endFill=0;" parent="1" source="pCgzKXGaRjzKQiXqkFun-64" target="pCgzKXGaRjzKQiXqkFun-1" edge="1">
          <mxGeometry relative="1" as="geometry" />
        </mxCell>
        <mxCell id="pCgzKXGaRjzKQiXqkFun-64" value="manage" style="rhombus;whiteSpace=wrap;html=1;" parent="1" vertex="1">
          <mxGeometry x="105" y="240" width="80" height="80" as="geometry" />
        </mxCell>
        <mxCell id="pCgzKXGaRjzKQiXqkFun-69" style="edgeStyle=orthogonalEdgeStyle;rounded=0;orthogonalLoop=1;jettySize=auto;html=1;exitX=0;exitY=1;exitDx=0;exitDy=0;entryX=0.673;entryY=-0.025;entryDx=0;entryDy=0;entryPerimeter=0;endArrow=none;endFill=0;" parent="1" source="pCgzKXGaRjzKQiXqkFun-16" target="pCgzKXGaRjzKQiXqkFun-23" edge="1">
          <mxGeometry relative="1" as="geometry" />
        </mxCell>
        <mxCell id="pCgzKXGaRjzKQiXqkFun-70" style="edgeStyle=orthogonalEdgeStyle;rounded=0;orthogonalLoop=1;jettySize=auto;html=1;exitX=1;exitY=1;exitDx=0;exitDy=0;entryX=0.329;entryY=0.058;entryDx=0;entryDy=0;entryPerimeter=0;endArrow=none;endFill=0;" parent="1" source="pCgzKXGaRjzKQiXqkFun-16" target="pCgzKXGaRjzKQiXqkFun-21" edge="1">
          <mxGeometry relative="1" as="geometry" />
        </mxCell>
        <mxCell id="pCgzKXGaRjzKQiXqkFun-77" value="&lt;div align=&quot;left&quot;&gt;&lt;font style=&quot;font-size: 16px;&quot;&gt;Each Graduate Student can work on multiple (one or more) projects.&amp;nbsp;&lt;/font&gt;&lt;/div&gt;" style="text;strokeColor=none;align=left;fillColor=none;html=1;verticalAlign=middle;whiteSpace=wrap;rounded=0;" parent="1" vertex="1">
          <mxGeometry x="730" y="890" width="640" height="30" as="geometry" />
        </mxCell>
        <mxCell id="pCgzKXGaRjzKQiXqkFun-80" value="works" style="rhombus;whiteSpace=wrap;html=1;" parent="1" vertex="1">
          <mxGeometry x="280" y="240" width="80" height="80" as="geometry" />
        </mxCell>
        <mxCell id="pCgzKXGaRjzKQiXqkFun-83" style="edgeStyle=orthogonalEdgeStyle;rounded=0;orthogonalLoop=1;jettySize=auto;html=1;exitX=0.5;exitY=0;exitDx=0;exitDy=0;endArrow=none;endFill=0;entryX=0.578;entryY=1.03;entryDx=0;entryDy=0;entryPerimeter=0;" parent="1" source="pCgzKXGaRjzKQiXqkFun-80" edge="1">
          <mxGeometry relative="1" as="geometry">
            <mxPoint x="320" y="228.2" as="sourcePoint" />
            <mxPoint x="229.36" y="179.99999999999994" as="targetPoint" />
            <Array as="points">
              <mxPoint x="320" y="208" />
              <mxPoint x="229" y="208" />
            </Array>
          </mxGeometry>
        </mxCell>
        <mxCell id="pCgzKXGaRjzKQiXqkFun-87" value="&lt;div&gt;&lt;font style=&quot;font-size: 16px;&quot;&gt;Professors can manage and/or work on multiple projects&lt;/font&gt;&lt;/div&gt;&lt;div align=&quot;left&quot;&gt;&lt;font style=&quot;font-size: 16px;&quot;&gt;- Professors can manage multiple projects&lt;/font&gt;&lt;/div&gt;&lt;div align=&quot;left&quot;&gt;&lt;font style=&quot;font-size: 16px;&quot;&gt;- Professors can work on multiple projects&amp;nbsp;&lt;/font&gt;&lt;/div&gt;" style="text;strokeColor=none;align=center;fillColor=none;html=1;verticalAlign=middle;whiteSpace=wrap;rounded=0;" parent="1" vertex="1">
          <mxGeometry x="745" y="980" width="410" height="40" as="geometry" />
        </mxCell>
        <mxCell id="pCgzKXGaRjzKQiXqkFun-92" value="works2" style="rhombus;whiteSpace=wrap;html=1;" parent="1" vertex="1">
          <mxGeometry x="425" y="440" width="80" height="80" as="geometry" />
        </mxCell>
        <mxCell id="pCgzKXGaRjzKQiXqkFun-99" value="supervises" style="rhombus;whiteSpace=wrap;html=1;" parent="1" vertex="1">
          <mxGeometry x="410" y="210" width="80" height="80" as="geometry" />
        </mxCell>
        <mxCell id="Qkja0bBRAM592csyJ8ed-10" style="edgeStyle=orthogonalEdgeStyle;rounded=0;orthogonalLoop=1;jettySize=auto;html=1;entryX=0.529;entryY=-0.01;entryDx=0;entryDy=0;entryPerimeter=0;endArrow=none;endFill=0;startArrow=classic;startFill=1;strokeWidth=3;" parent="1" source="pCgzKXGaRjzKQiXqkFun-99" target="Qkja0bBRAM592csyJ8ed-3" edge="1">
          <mxGeometry relative="1" as="geometry" />
        </mxCell>
        <mxCell id="CSdRYIGSl0JJNWNKMSJN-54" style="edgeStyle=orthogonalEdgeStyle;rounded=0;orthogonalLoop=1;jettySize=auto;html=1;exitX=0.5;exitY=0;exitDx=0;exitDy=0;endArrow=none;endFill=0;" edge="1" source="CSdRYIGSl0JJNWNKMSJN-57" parent="1">
          <mxGeometry relative="1" as="geometry">
            <mxPoint x="780" y="70" as="targetPoint" />
          </mxGeometry>
        </mxCell>
        <mxCell id="CSdRYIGSl0JJNWNKMSJN-63" style="edgeStyle=orthogonalEdgeStyle;rounded=0;orthogonalLoop=1;jettySize=auto;html=1;exitX=1;exitY=0.5;exitDx=0;exitDy=0;entryX=0;entryY=0.5;entryDx=0;entryDy=0;endArrow=none;endFill=0;" edge="1" parent="1" source="CSdRYIGSl0JJNWNKMSJN-57" target="CSdRYIGSl0JJNWNKMSJN-62">
          <mxGeometry relative="1" as="geometry" />
        </mxCell>
        <mxCell id="CSdRYIGSl0JJNWNKMSJN-71" style="edgeStyle=orthogonalEdgeStyle;rounded=0;orthogonalLoop=1;jettySize=auto;html=1;exitX=0;exitY=0;exitDx=0;exitDy=0;startArrow=none;startFill=0;endArrow=none;endFill=0;" edge="1" parent="1" source="CSdRYIGSl0JJNWNKMSJN-57" target="CSdRYIGSl0JJNWNKMSJN-68">
          <mxGeometry relative="1" as="geometry" />
        </mxCell>
        <mxCell id="CSdRYIGSl0JJNWNKMSJN-76" style="edgeStyle=orthogonalEdgeStyle;rounded=0;orthogonalLoop=1;jettySize=auto;html=1;exitX=0;exitY=0.5;exitDx=0;exitDy=0;entryX=1;entryY=0.5;entryDx=0;entryDy=0;endArrow=none;endFill=0;" edge="1" parent="1" source="CSdRYIGSl0JJNWNKMSJN-57" target="CSdRYIGSl0JJNWNKMSJN-72">
          <mxGeometry relative="1" as="geometry" />
        </mxCell>
        <mxCell id="CSdRYIGSl0JJNWNKMSJN-57" value="Department" style="rounded=1;whiteSpace=wrap;html=1;" vertex="1" parent="1">
          <mxGeometry x="720" y="100" width="120" height="60" as="geometry" />
        </mxCell>
        <mxCell id="CSdRYIGSl0JJNWNKMSJN-58" value="&lt;u&gt;depNumber&lt;/u&gt;" style="ellipse;whiteSpace=wrap;html=1;" vertex="1" parent="1">
          <mxGeometry x="745" y="20" width="70" height="50" as="geometry" />
        </mxCell>
        <mxCell id="CSdRYIGSl0JJNWNKMSJN-59" value="&lt;font style=&quot;font-size: 14px;&quot;&gt;name&lt;/font&gt;" style="ellipse;whiteSpace=wrap;html=1;" vertex="1" parent="1">
          <mxGeometry x="830" y="30" width="70" height="50" as="geometry" />
        </mxCell>
        <mxCell id="CSdRYIGSl0JJNWNKMSJN-60" style="edgeStyle=orthogonalEdgeStyle;rounded=0;orthogonalLoop=1;jettySize=auto;html=1;exitX=1;exitY=0;exitDx=0;exitDy=0;entryX=0.321;entryY=1;entryDx=0;entryDy=0;entryPerimeter=0;endArrow=none;endFill=0;" edge="1" source="CSdRYIGSl0JJNWNKMSJN-57" target="CSdRYIGSl0JJNWNKMSJN-59" parent="1">
          <mxGeometry relative="1" as="geometry">
            <Array as="points">
              <mxPoint x="853" y="100" />
            </Array>
          </mxGeometry>
        </mxCell>
        <mxCell id="CSdRYIGSl0JJNWNKMSJN-62" value="&lt;div&gt;main&amp;nbsp;&lt;/div&gt;&lt;div&gt;office&lt;/div&gt;" style="ellipse;whiteSpace=wrap;html=1;" vertex="1" parent="1">
          <mxGeometry x="860" y="105" width="70" height="50" as="geometry" />
        </mxCell>
        <mxCell id="CSdRYIGSl0JJNWNKMSJN-68" value="chairman" style="ellipse;whiteSpace=wrap;html=1;" vertex="1" parent="1">
          <mxGeometry x="670" y="20" width="70" height="50" as="geometry" />
        </mxCell>
        <mxCell id="CSdRYIGSl0JJNWNKMSJN-74" style="edgeStyle=orthogonalEdgeStyle;rounded=0;orthogonalLoop=1;jettySize=auto;html=1;exitX=1;exitY=0;exitDx=0;exitDy=0;entryX=0.5;entryY=1;entryDx=0;entryDy=0;endArrow=none;endFill=0;" edge="1" parent="1" source="CSdRYIGSl0JJNWNKMSJN-72" target="CSdRYIGSl0JJNWNKMSJN-73">
          <mxGeometry relative="1" as="geometry" />
        </mxCell>
        <mxCell id="CSdRYIGSl0JJNWNKMSJN-72" value="works3" style="rhombus;whiteSpace=wrap;html=1;" vertex="1" parent="1">
          <mxGeometry x="470" y="90" width="80" height="80" as="geometry" />
        </mxCell>
        <mxCell id="CSdRYIGSl0JJNWNKMSJN-73" value="&lt;div&gt;time&lt;/div&gt;&lt;div&gt;percentage&lt;/div&gt;" style="ellipse;whiteSpace=wrap;html=1;" vertex="1" parent="1">
          <mxGeometry x="492.5" y="30" width="70" height="50" as="geometry" />
        </mxCell>
        <mxCell id="CSdRYIGSl0JJNWNKMSJN-80" style="edgeStyle=orthogonalEdgeStyle;rounded=0;orthogonalLoop=1;jettySize=auto;html=1;entryX=0.5;entryY=1;entryDx=0;entryDy=0;endArrow=none;endFill=0;strokeWidth=1;" edge="1" parent="1" source="CSdRYIGSl0JJNWNKMSJN-77" target="CSdRYIGSl0JJNWNKMSJN-57">
          <mxGeometry relative="1" as="geometry" />
        </mxCell>
        <mxCell id="CSdRYIGSl0JJNWNKMSJN-77" value="in" style="rhombus;whiteSpace=wrap;html=1;" vertex="1" parent="1">
          <mxGeometry x="620" y="230" width="80" height="80" as="geometry" />
        </mxCell>
        <mxCell id="CSdRYIGSl0JJNWNKMSJN-91" style="edgeStyle=orthogonalEdgeStyle;rounded=0;orthogonalLoop=1;jettySize=auto;html=1;exitX=0.5;exitY=1;exitDx=0;exitDy=0;entryX=0.75;entryY=1;entryDx=0;entryDy=0;endArrow=none;endFill=0;strokeWidth=3;startArrow=classic;startFill=1;" edge="1" parent="1" source="CSdRYIGSl0JJNWNKMSJN-81" target="pCgzKXGaRjzKQiXqkFun-52">
          <mxGeometry relative="1" as="geometry" />
        </mxCell>
        <mxCell id="CSdRYIGSl0JJNWNKMSJN-81" value="&lt;div&gt;student&lt;/div&gt;&lt;div&gt;advisor&lt;/div&gt;" style="rhombus;whiteSpace=wrap;html=1;" vertex="1" parent="1">
          <mxGeometry x="900" y="445" width="80" height="80" as="geometry" />
        </mxCell>
        <mxCell id="CSdRYIGSl0JJNWNKMSJN-85" style="edgeStyle=orthogonalEdgeStyle;rounded=0;orthogonalLoop=1;jettySize=auto;html=1;exitX=0.5;exitY=1;exitDx=0;exitDy=0;entryX=0.714;entryY=0.1;entryDx=0;entryDy=0;entryPerimeter=0;endArrow=none;endFill=0;" edge="1" parent="1" source="pCgzKXGaRjzKQiXqkFun-52" target="pCgzKXGaRjzKQiXqkFun-57">
          <mxGeometry relative="1" as="geometry" />
        </mxCell>
        <mxCell id="CSdRYIGSl0JJNWNKMSJN-92" value="advisor" style="text;html=1;align=center;verticalAlign=middle;whiteSpace=wrap;rounded=0;" vertex="1" parent="1">
          <mxGeometry x="780" y="430" width="60" height="30" as="geometry" />
        </mxCell>
        <mxCell id="CSdRYIGSl0JJNWNKMSJN-93" value="mentee" style="text;html=1;align=center;verticalAlign=middle;whiteSpace=wrap;rounded=0;" vertex="1" parent="1">
          <mxGeometry x="780" y="510" width="60" height="30" as="geometry" />
        </mxCell>
        <mxCell id="CSdRYIGSl0JJNWNKMSJN-94" value="&lt;b&gt;Manage&lt;/b&gt; Relationship Between Professors and Projects&amp;nbsp;" style="text;strokeColor=#d6b656;align=left;fillColor=#fff2cc;html=1;verticalAlign=middle;whiteSpace=wrap;rounded=0;fontSize=19;" vertex="1" parent="1">
          <mxGeometry x="5" y="710" width="640" height="30" as="geometry" />
        </mxCell>
        <mxCell id="CSdRYIGSl0JJNWNKMSJN-95" value="&lt;div&gt;&lt;font style=&quot;font-size: 16px;&quot;&gt;Each project is worked on by one or more (at least one) professors&amp;nbsp; (e)&lt;/font&gt;&lt;/div&gt;&lt;div&gt;&lt;div&gt;&lt;font style=&quot;font-size: 16px;&quot;&gt;Professors can manage and/or work on multiple projects (f)&lt;/font&gt;&lt;/div&gt;&lt;br&gt;&lt;/div&gt;" style="text;strokeColor=#d6b656;align=left;fillColor=#fff2cc;html=1;verticalAlign=middle;whiteSpace=wrap;rounded=0;" vertex="1" parent="1">
          <mxGeometry y="860" width="645" height="60" as="geometry" />
        </mxCell>
        <mxCell id="CSdRYIGSl0JJNWNKMSJN-96" value="&lt;b&gt;Work&lt;/b&gt;&amp;nbsp;Relationship Between Professors and Projects&amp;nbsp;" style="text;strokeColor=#d6b656;align=left;fillColor=#fff2cc;html=1;verticalAlign=middle;whiteSpace=wrap;rounded=0;fontSize=19;" vertex="1" parent="1">
          <mxGeometry y="830" width="640" height="30" as="geometry" />
        </mxCell>
        <mxCell id="CSdRYIGSl0JJNWNKMSJN-98" value="&lt;b&gt;Supervises&lt;/b&gt;&amp;nbsp;Relationship Between Professors and Aggregated Projects + Graduate Students&amp;nbsp;" style="text;strokeColor=#d6b656;align=left;fillColor=#fff2cc;html=1;verticalAlign=middle;whiteSpace=wrap;rounded=0;fontSize=19;" vertex="1" parent="1">
          <mxGeometry x="-5" y="940" width="640" height="40" as="geometry" />
        </mxCell>
        <mxCell id="CSdRYIGSl0JJNWNKMSJN-99" value="&lt;div&gt;&lt;font style=&quot;font-size: 16px;&quot;&gt;When graduate students work on a project, a professor (exactly one) professor must supervise their work on the project (h)&amp;nbsp;&amp;nbsp;&lt;/font&gt;&lt;/div&gt;&lt;div&gt;&lt;font style=&quot;font-size: 16px;&quot;&gt;Every professor can supervise one or more projects (at least one)&lt;/font&gt;&lt;/div&gt;&lt;div&gt;&lt;br&gt;&lt;/div&gt;" style="text;strokeColor=#d6b656;align=left;fillColor=#fff2cc;html=1;verticalAlign=middle;whiteSpace=wrap;rounded=0;" vertex="1" parent="1">
          <mxGeometry x="-5" y="980" width="645" height="70" as="geometry" />
        </mxCell>
        <mxCell id="CSdRYIGSl0JJNWNKMSJN-125" style="edgeStyle=orthogonalEdgeStyle;rounded=0;orthogonalLoop=1;jettySize=auto;html=1;exitX=0;exitY=1;exitDx=0;exitDy=0;endArrow=none;endFill=0;" edge="1" parent="1" source="CSdRYIGSl0JJNWNKMSJN-106">
          <mxGeometry relative="1" as="geometry">
            <mxPoint x="65" y="1630" as="targetPoint" />
          </mxGeometry>
        </mxCell>
        <mxCell id="CSdRYIGSl0JJNWNKMSJN-106" value="Doctors" style="rounded=1;whiteSpace=wrap;html=1;" vertex="1" parent="1">
          <mxGeometry x="65" y="1360" width="120" height="60" as="geometry" />
        </mxCell>
        <mxCell id="CSdRYIGSl0JJNWNKMSJN-107" value="specialty" style="ellipse;whiteSpace=wrap;html=1;" vertex="1" parent="1">
          <mxGeometry x="108.75" y="1540" width="70" height="50" as="geometry" />
        </mxCell>
        <mxCell id="CSdRYIGSl0JJNWNKMSJN-108" value="&lt;div&gt;&lt;u&gt;SSN&lt;/u&gt;&lt;/div&gt;" style="ellipse;whiteSpace=wrap;html=1;" vertex="1" parent="1">
          <mxGeometry x="110" y="1440" width="67.5" height="50" as="geometry" />
        </mxCell>
        <mxCell id="CSdRYIGSl0JJNWNKMSJN-109" value="&lt;div&gt;experience&lt;/div&gt;&lt;div&gt;years&lt;/div&gt;" style="ellipse;whiteSpace=wrap;html=1;" vertex="1" parent="1">
          <mxGeometry x="107.5" y="1600" width="70" height="50" as="geometry" />
        </mxCell>
        <mxCell id="CSdRYIGSl0JJNWNKMSJN-129" style="edgeStyle=orthogonalEdgeStyle;rounded=0;orthogonalLoop=1;jettySize=auto;html=1;exitX=0;exitY=0.5;exitDx=0;exitDy=0;endArrow=none;endFill=0;" edge="1" parent="1">
          <mxGeometry relative="1" as="geometry">
            <mxPoint x="63.75" y="1515" as="targetPoint" />
            <mxPoint x="108.74999999999773" y="1515" as="sourcePoint" />
          </mxGeometry>
        </mxCell>
        <mxCell id="CSdRYIGSl0JJNWNKMSJN-110" value="name" style="ellipse;whiteSpace=wrap;html=1;" vertex="1" parent="1">
          <mxGeometry x="108.75" y="1490" width="70" height="50" as="geometry" />
        </mxCell>
        <mxCell id="CSdRYIGSl0JJNWNKMSJN-121" value="address" style="ellipse;whiteSpace=wrap;html=1;" vertex="1" parent="1">
          <mxGeometry x="522.5" y="1490" width="70" height="50" as="geometry" />
        </mxCell>
        <mxCell id="CSdRYIGSl0JJNWNKMSJN-132" style="edgeStyle=orthogonalEdgeStyle;rounded=0;orthogonalLoop=1;jettySize=auto;html=1;exitX=0;exitY=0.5;exitDx=0;exitDy=0;endArrow=none;endFill=0;" edge="1" parent="1">
          <mxGeometry relative="1" as="geometry">
            <mxPoint x="65" y="1460" as="targetPoint" />
            <mxPoint x="109.99999999999773" y="1460" as="sourcePoint" />
          </mxGeometry>
        </mxCell>
        <mxCell id="CSdRYIGSl0JJNWNKMSJN-133" style="edgeStyle=orthogonalEdgeStyle;rounded=0;orthogonalLoop=1;jettySize=auto;html=1;exitX=0;exitY=0.5;exitDx=0;exitDy=0;endArrow=none;endFill=0;" edge="1" parent="1">
          <mxGeometry relative="1" as="geometry">
            <mxPoint x="63.75" y="1564.71" as="targetPoint" />
            <mxPoint x="108.74999999999773" y="1564.71" as="sourcePoint" />
          </mxGeometry>
        </mxCell>
        <mxCell id="CSdRYIGSl0JJNWNKMSJN-134" style="edgeStyle=orthogonalEdgeStyle;rounded=0;orthogonalLoop=1;jettySize=auto;html=1;exitX=0;exitY=0.5;exitDx=0;exitDy=0;endArrow=none;endFill=0;" edge="1" parent="1">
          <mxGeometry relative="1" as="geometry">
            <mxPoint x="63.75" y="1630" as="targetPoint" />
            <mxPoint x="108.74999999999773" y="1630" as="sourcePoint" />
          </mxGeometry>
        </mxCell>
        <mxCell id="CSdRYIGSl0JJNWNKMSJN-135" style="edgeStyle=orthogonalEdgeStyle;rounded=0;orthogonalLoop=1;jettySize=auto;html=1;exitX=0;exitY=1;exitDx=0;exitDy=0;endArrow=none;endFill=0;" edge="1" source="CSdRYIGSl0JJNWNKMSJN-136" parent="1">
          <mxGeometry relative="1" as="geometry">
            <mxPoint x="210" y="1630" as="targetPoint" />
          </mxGeometry>
        </mxCell>
        <mxCell id="CSdRYIGSl0JJNWNKMSJN-136" value="Patients" style="rounded=1;whiteSpace=wrap;html=1;" vertex="1" parent="1">
          <mxGeometry x="210" y="1360" width="120" height="60" as="geometry" />
        </mxCell>
        <mxCell id="CSdRYIGSl0JJNWNKMSJN-137" value="address" style="ellipse;whiteSpace=wrap;html=1;" vertex="1" parent="1">
          <mxGeometry x="253.75" y="1540" width="70" height="50" as="geometry" />
        </mxCell>
        <mxCell id="CSdRYIGSl0JJNWNKMSJN-138" value="&lt;div&gt;&lt;u&gt;SSN&lt;/u&gt;&lt;/div&gt;" style="ellipse;whiteSpace=wrap;html=1;" vertex="1" parent="1">
          <mxGeometry x="255" y="1440" width="67.5" height="50" as="geometry" />
        </mxCell>
        <mxCell id="CSdRYIGSl0JJNWNKMSJN-139" value="age" style="ellipse;whiteSpace=wrap;html=1;" vertex="1" parent="1">
          <mxGeometry x="252.5" y="1600" width="70" height="50" as="geometry" />
        </mxCell>
        <mxCell id="CSdRYIGSl0JJNWNKMSJN-140" style="edgeStyle=orthogonalEdgeStyle;rounded=0;orthogonalLoop=1;jettySize=auto;html=1;exitX=0;exitY=0.5;exitDx=0;exitDy=0;endArrow=none;endFill=0;" edge="1" parent="1">
          <mxGeometry relative="1" as="geometry">
            <mxPoint x="208.75" y="1515" as="targetPoint" />
            <mxPoint x="253.74999999999773" y="1515" as="sourcePoint" />
          </mxGeometry>
        </mxCell>
        <mxCell id="CSdRYIGSl0JJNWNKMSJN-141" value="name" style="ellipse;whiteSpace=wrap;html=1;" vertex="1" parent="1">
          <mxGeometry x="253.75" y="1490" width="70" height="50" as="geometry" />
        </mxCell>
        <mxCell id="CSdRYIGSl0JJNWNKMSJN-142" style="edgeStyle=orthogonalEdgeStyle;rounded=0;orthogonalLoop=1;jettySize=auto;html=1;exitX=0;exitY=0.5;exitDx=0;exitDy=0;endArrow=none;endFill=0;" edge="1" parent="1">
          <mxGeometry relative="1" as="geometry">
            <mxPoint x="210" y="1460" as="targetPoint" />
            <mxPoint x="254.99999999999773" y="1460" as="sourcePoint" />
          </mxGeometry>
        </mxCell>
        <mxCell id="CSdRYIGSl0JJNWNKMSJN-143" style="edgeStyle=orthogonalEdgeStyle;rounded=0;orthogonalLoop=1;jettySize=auto;html=1;exitX=0;exitY=0.5;exitDx=0;exitDy=0;endArrow=none;endFill=0;" edge="1" parent="1">
          <mxGeometry relative="1" as="geometry">
            <mxPoint x="208.75" y="1564.71" as="targetPoint" />
            <mxPoint x="253.74999999999773" y="1564.71" as="sourcePoint" />
          </mxGeometry>
        </mxCell>
        <mxCell id="CSdRYIGSl0JJNWNKMSJN-144" style="edgeStyle=orthogonalEdgeStyle;rounded=0;orthogonalLoop=1;jettySize=auto;html=1;exitX=0;exitY=0.5;exitDx=0;exitDy=0;endArrow=none;endFill=0;" edge="1" parent="1">
          <mxGeometry relative="1" as="geometry">
            <mxPoint x="208.75" y="1630" as="targetPoint" />
            <mxPoint x="253.74999999999773" y="1630" as="sourcePoint" />
          </mxGeometry>
        </mxCell>
        <mxCell id="CSdRYIGSl0JJNWNKMSJN-145" style="edgeStyle=orthogonalEdgeStyle;rounded=0;orthogonalLoop=1;jettySize=auto;html=1;exitX=0;exitY=1;exitDx=0;exitDy=0;endArrow=none;endFill=0;" edge="1" parent="1" source="CSdRYIGSl0JJNWNKMSJN-146">
          <mxGeometry relative="1" as="geometry">
            <mxPoint x="344" y="1525" as="targetPoint" />
          </mxGeometry>
        </mxCell>
        <mxCell id="CSdRYIGSl0JJNWNKMSJN-146" value="Pharmaceutical Company&amp;nbsp;" style="rounded=1;whiteSpace=wrap;html=1;" vertex="1" parent="1">
          <mxGeometry x="343.75" y="1360" width="120" height="60" as="geometry" />
        </mxCell>
        <mxCell id="CSdRYIGSl0JJNWNKMSJN-148" value="&lt;u&gt;name&lt;/u&gt;" style="ellipse;whiteSpace=wrap;html=1;" vertex="1" parent="1">
          <mxGeometry x="388.75" y="1440" width="67.5" height="50" as="geometry" />
        </mxCell>
        <mxCell id="CSdRYIGSl0JJNWNKMSJN-150" style="edgeStyle=orthogonalEdgeStyle;rounded=0;orthogonalLoop=1;jettySize=auto;html=1;exitX=0;exitY=0.5;exitDx=0;exitDy=0;endArrow=none;endFill=0;" edge="1" parent="1">
          <mxGeometry relative="1" as="geometry">
            <mxPoint x="342.5" y="1515" as="targetPoint" />
            <mxPoint x="387.4999999999977" y="1515" as="sourcePoint" />
          </mxGeometry>
        </mxCell>
        <mxCell id="CSdRYIGSl0JJNWNKMSJN-152" style="edgeStyle=orthogonalEdgeStyle;rounded=0;orthogonalLoop=1;jettySize=auto;html=1;exitX=0;exitY=0.5;exitDx=0;exitDy=0;endArrow=none;endFill=0;" edge="1" parent="1">
          <mxGeometry relative="1" as="geometry">
            <mxPoint x="343.75" y="1460" as="targetPoint" />
            <mxPoint x="388.7499999999977" y="1460" as="sourcePoint" />
          </mxGeometry>
        </mxCell>
        <mxCell id="CSdRYIGSl0JJNWNKMSJN-156" value="" style="group" vertex="1" connectable="0" parent="1">
          <mxGeometry x="390" y="1490" width="70" height="50" as="geometry" />
        </mxCell>
        <mxCell id="CSdRYIGSl0JJNWNKMSJN-113" value="Phone" style="ellipse;whiteSpace=wrap;html=1;" vertex="1" parent="CSdRYIGSl0JJNWNKMSJN-156">
          <mxGeometry width="70" height="50" as="geometry" />
        </mxCell>
        <mxCell id="CSdRYIGSl0JJNWNKMSJN-114" value="" style="ellipse;whiteSpace=wrap;html=1;fillColor=none;" vertex="1" parent="CSdRYIGSl0JJNWNKMSJN-156">
          <mxGeometry x="5" y="6.25" width="60" height="37.5" as="geometry" />
        </mxCell>
        <mxCell id="CSdRYIGSl0JJNWNKMSJN-157" style="edgeStyle=orthogonalEdgeStyle;rounded=0;orthogonalLoop=1;jettySize=auto;html=1;exitX=0;exitY=1;exitDx=0;exitDy=0;endArrow=none;endFill=0;" edge="1" parent="1" source="CSdRYIGSl0JJNWNKMSJN-158">
          <mxGeometry relative="1" as="geometry">
            <mxPoint x="480" y="1570" as="targetPoint" />
          </mxGeometry>
        </mxCell>
        <mxCell id="CSdRYIGSl0JJNWNKMSJN-158" value="Patients" style="rounded=1;whiteSpace=wrap;html=1;" vertex="1" parent="1">
          <mxGeometry x="480" y="1360" width="120" height="60" as="geometry" />
        </mxCell>
        <mxCell id="CSdRYIGSl0JJNWNKMSJN-159" value="&lt;div&gt;&lt;u&gt;name&lt;/u&gt;&lt;/div&gt;" style="ellipse;whiteSpace=wrap;html=1;" vertex="1" parent="1">
          <mxGeometry x="525" y="1440" width="67.5" height="50" as="geometry" />
        </mxCell>
        <mxCell id="CSdRYIGSl0JJNWNKMSJN-161" style="edgeStyle=orthogonalEdgeStyle;rounded=0;orthogonalLoop=1;jettySize=auto;html=1;exitX=0;exitY=0.5;exitDx=0;exitDy=0;endArrow=none;endFill=0;" edge="1" parent="1">
          <mxGeometry relative="1" as="geometry">
            <mxPoint x="478.75" y="1515" as="targetPoint" />
            <mxPoint x="523.7499999999977" y="1515" as="sourcePoint" />
          </mxGeometry>
        </mxCell>
        <mxCell id="CSdRYIGSl0JJNWNKMSJN-162" style="edgeStyle=orthogonalEdgeStyle;rounded=0;orthogonalLoop=1;jettySize=auto;html=1;exitX=0;exitY=0.5;exitDx=0;exitDy=0;endArrow=none;endFill=0;" edge="1" parent="1">
          <mxGeometry relative="1" as="geometry">
            <mxPoint x="480" y="1460" as="targetPoint" />
            <mxPoint x="524.9999999999977" y="1460" as="sourcePoint" />
          </mxGeometry>
        </mxCell>
        <mxCell id="CSdRYIGSl0JJNWNKMSJN-163" style="edgeStyle=orthogonalEdgeStyle;rounded=0;orthogonalLoop=1;jettySize=auto;html=1;exitX=0;exitY=0.5;exitDx=0;exitDy=0;endArrow=none;endFill=0;" edge="1" parent="1">
          <mxGeometry relative="1" as="geometry">
            <mxPoint x="478.75" y="1564.71" as="targetPoint" />
            <mxPoint x="523.7499999999977" y="1564.71" as="sourcePoint" />
          </mxGeometry>
        </mxCell>
        <mxCell id="CSdRYIGSl0JJNWNKMSJN-166" value="" style="group" vertex="1" connectable="0" parent="1">
          <mxGeometry x="520" y="1540" width="70" height="50" as="geometry" />
        </mxCell>
        <mxCell id="CSdRYIGSl0JJNWNKMSJN-167" value="Phone" style="ellipse;whiteSpace=wrap;html=1;" vertex="1" parent="CSdRYIGSl0JJNWNKMSJN-166">
          <mxGeometry width="70" height="50" as="geometry" />
        </mxCell>
        <mxCell id="CSdRYIGSl0JJNWNKMSJN-168" value="" style="ellipse;whiteSpace=wrap;html=1;fillColor=none;" vertex="1" parent="CSdRYIGSl0JJNWNKMSJN-166">
          <mxGeometry x="5" y="6.25" width="60" height="37.5" as="geometry" />
        </mxCell>
        <mxCell id="CSdRYIGSl0JJNWNKMSJN-175" style="edgeStyle=orthogonalEdgeStyle;rounded=0;orthogonalLoop=1;jettySize=auto;html=1;exitX=0;exitY=1;exitDx=0;exitDy=0;endArrow=none;endFill=0;" edge="1" parent="1" source="CSdRYIGSl0JJNWNKMSJN-176">
          <mxGeometry relative="1" as="geometry">
            <mxPoint x="610.25" y="1525" as="targetPoint" />
          </mxGeometry>
        </mxCell>
        <mxCell id="CSdRYIGSl0JJNWNKMSJN-176" value="Drug" style="rounded=1;whiteSpace=wrap;html=1;" vertex="1" parent="1">
          <mxGeometry x="610" y="1360" width="120" height="60" as="geometry" />
        </mxCell>
        <mxCell id="CSdRYIGSl0JJNWNKMSJN-177" value="&lt;div&gt;&lt;u&gt;trade&amp;nbsp;&lt;/u&gt;&lt;/div&gt;&lt;div&gt;&lt;u&gt;name&lt;/u&gt;&lt;/div&gt;" style="ellipse;whiteSpace=wrap;html=1;" vertex="1" parent="1">
          <mxGeometry x="655" y="1440" width="67.5" height="50" as="geometry" />
        </mxCell>
        <mxCell id="CSdRYIGSl0JJNWNKMSJN-178" style="edgeStyle=orthogonalEdgeStyle;rounded=0;orthogonalLoop=1;jettySize=auto;html=1;exitX=0;exitY=0.5;exitDx=0;exitDy=0;endArrow=none;endFill=0;" edge="1" parent="1">
          <mxGeometry relative="1" as="geometry">
            <mxPoint x="608.75" y="1515" as="targetPoint" />
            <mxPoint x="653.7499999999977" y="1515" as="sourcePoint" />
          </mxGeometry>
        </mxCell>
        <mxCell id="CSdRYIGSl0JJNWNKMSJN-179" style="edgeStyle=orthogonalEdgeStyle;rounded=0;orthogonalLoop=1;jettySize=auto;html=1;exitX=0;exitY=0.5;exitDx=0;exitDy=0;endArrow=none;endFill=0;" edge="1" parent="1">
          <mxGeometry relative="1" as="geometry">
            <mxPoint x="610" y="1460" as="targetPoint" />
            <mxPoint x="654.9999999999977" y="1460" as="sourcePoint" />
          </mxGeometry>
        </mxCell>
        <mxCell id="CSdRYIGSl0JJNWNKMSJN-180" value="" style="group" vertex="1" connectable="0" parent="1">
          <mxGeometry x="656.25" y="1490" width="70" height="50" as="geometry" />
        </mxCell>
        <mxCell id="CSdRYIGSl0JJNWNKMSJN-181" value="formula" style="ellipse;whiteSpace=wrap;html=1;" vertex="1" parent="CSdRYIGSl0JJNWNKMSJN-180">
          <mxGeometry width="70" height="50" as="geometry" />
        </mxCell>
      </root>
    </mxGraphModel>
  </diagram>
</mxfile>
